PathFileType	4	(X/Y/Z)	SUBJ94_0_static_RCNL2025.trc
DataRate	CameraRate	NumFrames	NumMarkers	Units	OrigDataRate	OrigDataStartFrame	OrigNumFrames
100	100	6	25	mm	100	114	227
Frame#	Time	R_Shoulder			L_Shoulder			C7			J_Notch			R_Elbow			L_Elbow			R_Wrist			L_Wrist			R_Asis			L_Asis			Sacral			Thoracic			Sternum			R_Thigh_Lateral			R_Knee_Lateral			R_Shank_Lateral			R_Ankle_Lateral			R_Heel			R_Toe			L_Thigh_Lateral			L_Knee_Lateral			L_Shank_Lateral			L_Ankle_Lateral			L_Heel			L_Toe		
		X1	Y1	Z1	X2	Y2	Z2	X3	Y3	Z3	X4	Y4	Z4	X5	Y5	Z5	X6	Y6	Z6	X7	Y7	Z7	X8	Y8	Z8	X9	Y9	Z9	X10	Y10	Z10	X11	Y11	Z11	X12	Y12	Z12	X13	Y13	Z13	X14	Y14	Z14	X15	Y15	Z15	X16	Y16	Z16	X17	Y17	Z17	X18	Y18	Z18	X19	Y19	Z19	X20	Y20	Z20	X21	Y21	Z21	X22	Y22	Z22	X23	Y23	Z23	X24	Y24	Z24	X25	Y25	Z25
114	1.13000000	-294.637115	1269.959595	-55.146687	-280.526794	1284.925415	-431.374054	-339.473236	1352.112061	-241.668259	-225.200500	1263.835083	-246.750198	-361.025421	1018.288452	62.406929	-341.747345	1031.693115	-549.360779	-336.495316	804.899780	128.368938	-295.694992	805.740692	-585.789612	-214.321274	881.471497	-117.242516	-199.410843	872.455139	-343.951874	-397.305054	939.885864	-252.043655	-401.095581	1148.704346	-252.884827	-184.231522	1071.202393	-239.675919	-306.662262	537.043030	-57.997143	-326.183472	444.147888	-115.834778	-348.641510	260.969330	-75.053909	-361.086060	55.767414	-158.165268	-404.331940	52.500538	-206.137970	-226.346542	37.854671	-187.943909	-292.646210	535.893616	-428.487518	-319.655701	439.544556	-373.305420	-336.050934	259.916565	-436.916046	-358.886169	56.777878	-331.730865	-399.354828	46.597809	-283.479065	-233.166977	42.485359	-300.165680
115	1.14000000	-294.677612	1270.009644	-55.174171	-280.612000	1285.037476	-431.403107	-339.537628	1352.133545	-241.723724	-225.215591	1263.827393	-246.779602	-361.070526	1018.332886	62.464260	-341.911926	1031.818970	-549.457642	-336.576004	805.016296	128.565632	-295.820511	805.852844	-585.982819	-214.344666	881.462708	-117.224098	-199.454407	872.526550	-343.946045	-397.265015	939.859802	-251.959625	-401.159485	1148.710571	-252.978119	-184.339600	1071.204712	-239.733917	-306.719238	537.086060	-57.943615	-326.166779	444.138855	-115.866737	-348.643555	260.947937	-74.955566	-361.083466	55.759098	-158.161926	-404.331665	52.517437	-206.136169	-226.363068	37.865063	-187.944229	-292.752808	535.893555	-428.498871	-319.591217	439.693817	-373.325928	-336.061279	259.950745	-436.913849	-358.839935	56.804840	-331.735321	-399.345764	46.615967	-283.486328	-233.162216	42.474014	-300.164093
116	1.15000000	-294.705414	1270.085815	-55.230221	-280.642365	1285.054077	-431.456757	-339.540161	1352.122925	-241.753922	-225.331024	1263.849365	-246.839432	-361.124512	1018.459595	62.491505	-342.042603	1031.945679	-549.550964	-336.557388	805.154633	128.662949	-296.049011	805.635468	-585.727478	-214.339096	881.460632	-117.229858	-199.572968	872.522400	-343.960724	-397.324097	939.892944	-252.012299	-401.235352	1148.719727	-252.945999	-184.356491	1071.213501	-239.715973	-306.699890	537.089600	-57.955853	-326.266296	444.240204	-115.772293	-348.600983	260.929108	-74.959671	-361.094879	55.752361	-158.168198	-404.331970	52.515347	-206.138580	-226.311218	37.864693	-187.951859	-292.856689	535.905884	-428.475159	-319.682861	439.544312	-373.302979	-336.050354	259.935852	-436.932434	-358.816681	56.823681	-331.738342	-399.318085	46.571320	-283.506378	-233.172058	42.504070	-300.186981
117	1.16000000	-294.720490	1270.134766	-55.234432	-280.777008	1285.124634	-431.473328	-339.598969	1352.162354	-241.810303	-225.319946	1263.902710	-246.876755	-361.192596	1018.545227	62.505436	-342.152008	1032.056763	-549.678101	-336.499329	805.286896	128.819149	-296.242477	805.689056	-585.830597	-214.334991	881.461914	-117.232201	-199.591751	872.520020	-343.980621	-397.339447	939.894958	-251.922882	-401.304077	1148.751709	-252.995239	-184.465561	1071.211304	-239.748932	-306.704742	537.088440	-57.936954	-326.305298	444.260040	-115.764595	-348.577057	260.929382	-74.976837	-361.086731	55.771816	-158.163467	-404.333771	52.524967	-206.135468	-226.289429	37.868141	-187.949615	-292.815521	535.924011	-428.484985	-319.596893	439.721100	-373.358826	-336.046661	259.975494	-436.881439	-358.838837	56.804745	-331.707764	-399.317017	46.607677	-283.499786	-233.092804	42.499908	-300.194672
118	1.17000000	-294.771149	1270.157593	-55.233932	-280.811066	1285.223145	-431.484680	-339.726746	1352.174194	-241.846603	-225.330795	1263.835815	-246.875870	-361.257446	1018.584656	62.589722	-342.359650	1032.126343	-549.780396	-336.413269	805.372803	128.944416	-296.386627	806.156982	-586.619080	-214.314850	881.519348	-117.268066	-199.584106	872.519348	-343.987152	-397.370056	939.851257	-251.871628	-401.305908	1148.752930	-252.998093	-184.462372	1071.260742	-239.783707	-306.761902	537.145386	-57.919010	-326.285980	444.275330	-115.761803	-348.586548	260.953125	-74.961533	-361.087219	55.805454	-158.135269	-404.334564	52.569927	-206.133453	-226.301346	37.892345	-187.953354	-292.805450	535.959045	-428.423187	-319.574188	439.757050	-373.372528	-336.050446	259.944305	-436.916718	-358.873230	56.861717	-331.691925	-399.318024	46.590866	-283.517029	-233.139572	42.450459	-300.120148
119	1.18000000	-294.876862	1270.182983	-55.292267	-280.957092	1285.247681	-431.493164	-339.734070	1352.167603	-241.888260	-225.429855	1263.920776	-246.908432	-361.301514	1018.686584	62.635483	-342.501099	1032.240112	-549.851562	-336.355652	805.468842	129.093147	-296.606415	806.308685	-586.869781	-214.426773	881.539734	-117.334167	-199.554062	872.592712	-343.957520	-397.539337	939.920349	-251.860458	-401.375885	1148.710571	-253.035309	-184.423431	1071.353882	-239.789963	-307.006409	537.246521	-57.756317	-326.301514	444.267181	-115.751083	-348.595428	260.961243	-74.952797	-361.109314	55.826496	-158.115646	-404.336212	52.572929	-206.133026	-226.302948	37.902206	-187.976471	-292.864868	535.941833	-428.438049	-319.737244	439.612579	-373.265869	-336.036774	260.016327	-436.950928	-358.868927	56.891354	-331.686005	-399.317352	46.616825	-283.511902	-233.160538	42.517944	-300.169830
